<?xml version="1.0" encoding="UTF-8" standalone="no"?>
<svg xmlns:xlink="http://www.w3.org/1999/xlink" height="39.75px" width="64.4px" xmlns="http://www.w3.org/2000/svg">
  <g transform="matrix(1.0, 0.0, 0.0, 1.0, 0.0, 39.75)">
    <path d="M35.8 -38.65 L37.8 -38.0 39.8 -37.05 43.4 -34.35 44.75 -32.6 54.9 -21.05 55.4 -19.0 55.6 -16.75 55.55 -15.6 55.25 -14.45 53.05 -10.25 51.25 -7.75 48.85 -4.95 47.4 -3.9 43.55 -1.75 39.2 -0.2 36.65 0.0 32.35 -0.15 30.35 -0.55 25.55 -2.45 17.7 -7.35 15.2 -8.55 11.8 -9.55 15.25 -10.3 16.95 -10.5 13.05 -12.95 9.4 -14.8 7.45 -15.45 5.4 -15.55 7.75 -16.85 6.9 -17.45 4.95 -18.1 8.05 -19.45 3.2 -20.2 0.0 -30.9 4.35 -32.45 11.3 -34.2 11.5 -34.2 10.75 -34.75 9.9 -35.1 9.05 -35.7 12.5 -36.15 15.1 -36.9 16.0 -37.45 16.6 -37.7 21.2 -38.95 23.85 -39.4 29.85 -39.75 35.8 -38.65" fill="url(#gradient0)" fill-rule="evenodd" stroke="none"/>
    <path d="M64.4 -6.2 Q63.3 -7.25 62.15 -8.25 L56.15 -12.3 48.2 -16.45 44.05 -18.15 39.85 -19.1 45.25 -18.9 47.55 -18.4 50.55 -17.15 58.5 -13.0 63.35 -9.35 64.4 -6.2" fill="#3e9344" fill-rule="evenodd" stroke="none"/>
    <path d="M42.2 -18.3 L43.6 -17.95 41.8 -16.3 37.95 -13.3 33.6 -11.5 31.55 -11.0 27.0 -10.6 24.4 -10.7 21.55 -11.1 19.0 -11.75 22.15 -11.35 25.0 -11.25 29.9 -11.65 33.9 -12.6 37.15 -13.9 39.2 -15.25 40.95 -16.65 42.2 -18.3" fill="#028c08" fill-rule="evenodd" stroke="none"/>
    <path d="M36.2 -25.7 L34.6 -28.3 32.4 -30.95 29.35 -33.95 31.05 -33.05 34.05 -30.05 35.95 -27.4 37.05 -25.35 38.05 -21.3 38.25 -19.6 38.2 -18.15 37.05 -18.2 37.4 -19.6 36.95 -23.05 36.2 -25.7" fill="#028c08" fill-rule="evenodd" stroke="none"/>
    <path d="M27.65 -20.0 L28.75 -19.4 28.2 -19.1 27.6 -18.6 26.15 -18.05 20.95 -17.7 11.55 -18.9 10.7 -19.25 15.8 -18.45 19.8 -18.0 22.7 -18.2 26.15 -18.9 27.05 -19.45 27.65 -20.0" fill="#028c08" fill-rule="evenodd" stroke="none"/>
    <path d="M22.15 -26.8 L20.55 -28.9 18.3 -30.95 15.25 -32.8 16.1 -32.5 19.45 -30.35 22.75 -27.1 24.35 -23.85 24.8 -21.0 24.25 -21.3 23.75 -23.6 23.25 -25.05 22.15 -26.8" fill="#028c08" fill-rule="evenodd" stroke="none"/>
    <path d="M53.8 -15.7 L54.35 -15.1 54.05 -14.55 53.5 -15.15 49.55 -16.7 43.85 -17.5 35.25 -17.85 30.45 -18.9 22.5 -21.5 16.6 -24.3 14.1 -25.8 12.4 -26.45 9.85 -27.15 6.7 -27.55 5.85 -27.85 9.25 -27.45 14.35 -26.1 16.6 -24.6 19.15 -23.6 22.55 -22.05 30.75 -19.45 35.3 -18.7 43.9 -18.35 47.0 -17.95 51.55 -16.9 52.95 -16.3 53.8 -15.7" fill="#028c08" fill-rule="evenodd" stroke="none"/>
  </g>
  <defs>
    <linearGradient gradientTransform="matrix(0.0339, 0.0, 0.0, 0.0339, 27.8, -19.9)" gradientUnits="userSpaceOnUse" id="gradient0" spreadMethod="pad" x1="-819.2" x2="819.2">
      <stop offset="0.00392156862745098" stop-color="#3ace41"/>
      <stop offset="0.4823529411764706" stop-color="#19b220"/>
      <stop offset="1.0" stop-color="#037c09"/>
    </linearGradient>
  </defs>
</svg>
