<?xml version="1.0" encoding="UTF-8" standalone="no"?>
<svg xmlns:xlink="http://www.w3.org/1999/xlink" height="229.6px" width="127.0px" xmlns="http://www.w3.org/2000/svg">
  <g transform="matrix(1.0, 0.0, 0.0, 1.0, 56.45, 114.0)">
    <path d="M35.5 -39.75 L-4.5 -39.75 -4.5 -79.75 35.5 -79.75 35.5 -39.75 Z" fill="none" stroke="#ff0000" stroke-linecap="round" stroke-linejoin="round" stroke-width="3.0"/>
    <path d="M70.55 -7.35 L70.45 -0.35 69.4 6.85 64.25 21.05 59.95 27.1 33.1 70.85 27.1 74.35 20.0 77.25 16.3 78.3 12.4 78.35 -3.2 75.5 -13.0 72.15 -24.1 67.3 -29.05 63.65 -39.65 53.55 -48.85 41.1 -51.95 33.1 -55.65 19.25 -56.45 12.55 -55.05 -4.6 -47.15 -34.45 -45.7 -43.75 -45.85 -55.5 -40.15 -45.15 -37.75 -39.9 -33.8 -54.8 -31.5 -68.25 -31.3 -75.15 -33.05 -81.7 -26.5 -75.45 -25.35 -78.75 -25.2 -85.7 -18.0 -77.1 -20.3 -93.3 10.65 -114.0 19.9 -101.65 32.2 -81.2 32.6 -80.55 33.6 -83.5 33.8 -86.55 34.9 -89.8 39.65 -79.2 44.65 -71.65 47.25 -69.4 48.6 -67.7 57.15 -54.2 61.2 -46.35 68.2 -27.45 70.55 -7.35" fill="url(#gradient0)" fill-rule="evenodd" stroke="none"/>
    <path d="M-4.75 115.6 L-0.5 106.5 6.55 83.3 12.1 53.95 13.4 38.95 12.3 24.65 16.9 42.05 17.7 49.85 16.55 60.75 11.05 90.15 Q7.55 99.7 4.2 109.2 L-4.75 115.6" fill="#3e9344" fill-rule="evenodd" stroke="none"/>
    <path d="M11.9 32.85 L12.2 37.75 5.2 33.65 -8.1 24.35 -18.25 12.2 -21.85 6.15 -27.6 -8.1 -29.75 -16.45 -31.3 -25.9 -31.7 -34.7 -29.9 -24.3 -27.5 -15.05 -21.45 0.15 -14.3 12.05 -7.05 21.05 -0.7 26.35 5.35 30.6 11.9 32.85" fill="#028c08" fill-rule="evenodd" stroke="none"/>
    <path d="M29.65 6.55 L36.5 -1.15 42.85 -10.75 49.35 -23.4 48.05 -17.1 41.5 -4.55 34.95 4.1 29.5 9.55 17.5 16.7 12.2 19.1 7.65 20.3 6.65 16.6 11.5 16.3 22.1 11.5 29.65 6.55" fill="#028c08" fill-rule="evenodd" stroke="none"/>
    <path d="M3.05 -15.05 L2.2 -10.9 0.8 -12.5 Q-0.35 -13.1 -1.55 -13.85 L-4.65 -17.95 -10.9 -34.15 -16.2 -65.35 -16.0 -68.35 -13.5 -51.25 -10.9 -38.05 -7.6 -29.05 -1.85 -18.7 0.75 -16.4 3.05 -15.05" fill="#028c08" fill-rule="evenodd" stroke="none"/>
    <path d="M19.65 -39.4 L24.65 -46.65 29.1 -55.75 31.95 -67.35 31.75 -64.35 28.25 -51.5 21.05 -37.75 12.4 -29.5 3.65 -25.25 4.1 -27.3 10.9 -31.15 15.05 -34.2 19.65 -39.4" fill="#028c08" fill-rule="evenodd" stroke="none"/>
    <path d="M15.1 72.65 L13.75 75.0 11.7 74.55 13.05 72.2 14.2 58.05 11.15 39.15 3.8 11.4 2.45 -5.0 2.9 -32.85 6.1 -54.45 8.45 -63.95 8.8 -70.05 8.5 -78.8 6.7 -89.25 6.9 -92.25 8.95 -80.95 9.65 -63.3 7.0 -54.75 6.4 -45.65 4.8 -33.35 4.5 -4.6 6.55 10.6 13.9 38.4 15.7 48.8 16.8 64.3 16.2 69.35 15.1 72.65" fill="#028c08" fill-rule="evenodd" stroke="none"/>
    <path d="M36.5 -81.5 L36.6 -81.5 36.6 -37.5 -8.4 -37.5 -8.4 -81.5 -7.85 -81.5 -7.85 -37.6 36.5 -37.6 36.5 -81.5 36.5 -37.6 -7.85 -37.6 -7.85 -81.5 36.5 -81.5" fill="#ffffff" fill-opacity="0.4" fill-rule="evenodd" stroke="none"/>
    <path d="M-7.85 -81.5 L-7.85 -82.0 36.5 -82.0 36.5 -81.5 36.5 -37.6 -7.85 -37.6 -7.85 -81.5 Z" fill="none" stroke="#999999" stroke-linecap="round" stroke-linejoin="round" stroke-width="3.0"/>
  </g>
  <defs>
    <linearGradient gradientTransform="matrix(0.0333, 0.1083, -0.1083, 0.0333, 2.8, -14.55)" gradientUnits="userSpaceOnUse" id="gradient0" spreadMethod="pad" x1="-819.2" x2="819.2">
      <stop offset="0.00392156862745098" stop-color="#3ace41"/>
      <stop offset="0.4823529411764706" stop-color="#19b220"/>
      <stop offset="1.0" stop-color="#037c09"/>
    </linearGradient>
  </defs>
</svg>
