<?xml version="1.0" encoding="UTF-8" standalone="no"?>
<svg xmlns:xlink="http://www.w3.org/1999/xlink" height="49.95px" width="50.0px" xmlns="http://www.w3.org/2000/svg">
  <g transform="matrix(1.0, 0.0, 0.0, 1.0, -18.0, 48.9)">
    <path d="M55.3 -40.4 L56.85 -38.95 58.25 -37.3 60.4 -33.3 60.9 -31.15 65.25 -16.45 64.85 -14.4 64.05 -12.25 63.5 -11.2 62.8 -10.3 59.05 -7.4 56.35 -5.95 53.05 -4.4 51.2 -4.05 46.85 -3.7 42.3 -4.15 39.85 -5.0 Q37.95 -6.0 36.0 -6.95 L34.35 -8.15 30.8 -11.85 25.75 -19.6 24.0 -21.8 21.35 -24.1 24.75 -23.3 26.45 -22.8 23.9 -26.65 21.4 -29.8 19.85 -31.25 18.05 -32.2 20.75 -32.4 20.25 -33.3 18.75 -34.75 22.1 -34.6 18.0 -37.3 19.6 -48.35 24.2 -48.0 31.2 -46.6 31.45 -46.6 30.95 -47.4 30.35 -48.05 29.8 -48.9 33.15 -47.85 35.8 -47.45 36.85 -47.6 37.5 -47.6 42.2 -46.75 44.75 -46.1 50.35 -43.9 55.3 -40.4" fill="url(#gradient0)" fill-rule="evenodd" stroke="none"/>
    <path d="M67.65 1.05 L66.5 -1.75 62.7 -7.95 57.3 -15.05 54.2 -18.35 50.8 -20.95 Q53.2 -19.7 55.6 -18.5 L57.45 -17.15 59.7 -14.65 65.15 -7.6 68.0 -2.25 67.65 1.05" fill="#3e9344" fill-rule="evenodd" stroke="none"/>
    <path d="M52.55 -19.3 L53.7 -18.4 51.4 -17.65 46.65 -16.55 41.95 -16.7 39.9 -17.1 35.55 -18.65 33.25 -19.85 30.85 -21.4 28.8 -23.05 31.5 -21.4 34.05 -20.1 38.6 -18.4 42.7 -17.6 46.15 -17.4 48.6 -17.8 50.75 -18.3 52.55 -19.3" fill="#028c08" fill-rule="evenodd" stroke="none"/>
    <path d="M50.2 -28.5 L49.85 -31.55 48.95 -34.9 47.45 -38.85 48.6 -37.3 50.05 -33.35 50.7 -30.15 50.85 -27.85 50.0 -23.75 49.5 -22.05 48.85 -20.85 47.85 -21.35 48.75 -22.5 49.8 -25.8 50.2 -28.5" fill="#028c08" fill-rule="evenodd" stroke="none"/>
    <path d="M40.1 -26.9 L40.85 -25.9 40.25 -25.9 39.45 -25.65 37.95 -25.8 33.1 -27.6 25.05 -32.65 24.45 -33.3 28.75 -30.45 32.15 -28.4 34.85 -27.3 38.3 -26.5 39.3 -26.65 40.1 -26.9" fill="#028c08" fill-rule="evenodd" stroke="none"/>
    <path d="M38.05 -35.35 L37.4 -37.95 36.3 -40.75 34.25 -43.7 34.85 -43.05 37.05 -39.75 38.65 -35.35 38.75 -31.8 37.95 -29.0 37.6 -29.5 38.15 -31.8 38.25 -33.3 38.05 -35.35" fill="#028c08" fill-rule="evenodd" stroke="none"/>
    <path d="M62.0 -12.05 L62.2 -11.3 61.7 -10.9 61.45 -11.65 58.55 -14.75 53.7 -17.9 46.05 -21.7 42.15 -24.75 36.05 -30.4 31.85 -35.4 30.2 -37.85 28.9 -39.15 26.9 -40.85 24.2 -42.5 23.6 -43.15 26.55 -41.35 30.6 -38.0 32.0 -35.7 33.85 -33.7 36.3 -30.9 42.65 -25.1 46.45 -22.5 54.15 -18.6 56.75 -16.95 60.45 -14.1 61.45 -12.95 62.0 -12.05" fill="#028c08" fill-rule="evenodd" stroke="none"/>
  </g>
  <defs>
    <linearGradient gradientTransform="matrix(0.0308, 0.0142, -0.0142, 0.0308, 40.15, -26.75)" gradientUnits="userSpaceOnUse" id="gradient0" spreadMethod="pad" x1="-819.2" x2="819.2">
      <stop offset="0.00392156862745098" stop-color="#3ace41"/>
      <stop offset="0.4823529411764706" stop-color="#19b220"/>
      <stop offset="1.0" stop-color="#037c09"/>
    </linearGradient>
  </defs>
</svg>
