<?xml version="1.0" encoding="UTF-8" standalone="no"?>
<svg xmlns:xlink="http://www.w3.org/1999/xlink" height="39.4px" width="50.35px" xmlns="http://www.w3.org/2000/svg">
  <g transform="matrix(1.0, 0.0, 0.0, 1.0, 0.0, 39.4)">
    <path d="M39.5 -34.65 L38.7 -34.65 39.25 -34.4 40.0 -34.15 41.55 -33.9 50.05 -34.25 50.35 -33.75 47.5 -32.15 45.95 -30.9 41.85 -26.4 42.7 -25.95 41.4 -24.6 40.1 -22.85 39.1 -20.55 40.4 -21.3 41.15 -22.1 40.65 -20.3 38.35 -16.65 36.8 -15.1 36.1 -14.6 38.35 -14.85 36.8 -12.05 31.75 -6.35 26.35 -2.95 20.2 -0.55 15.6 0.0 13.25 0.0 8.6 -0.5 5.25 -2.05 3.45 -4.3 2.65 -5.6 2.05 -8.15 2.05 -10.7 3.05 -14.85 2.55 -19.5 3.2 -26.15 3.8 -27.5 5.6 -30.25 9.65 -35.0 15.75 -39.4 15.3 -36.75 18.4 -37.85 29.15 -39.2 28.4 -37.65 31.5 -37.2 41.55 -37.25 40.75 -36.45 39.5 -34.65" fill="url(#gradient0)" fill-rule="evenodd" stroke="none"/>
    <path d="M36.85 -28.35 L32.1 -26.75 18.1 -22.55 10.6 -20.0 5.3 -17.45 3.35 -15.85 2.2 -14.55 1.1 -13.65 0.0 -11.75 0.0 -12.7 0.3 -13.3 0.85 -14.25 3.05 -16.8 5.0 -18.05 7.5 -19.35 10.55 -20.6 17.85 -23.15 25.65 -25.1 36.85 -28.35" fill="#059913" fill-rule="evenodd" stroke="none"/>
    <path d="M18.7 -7.65 L21.8 -8.45 21.3 -8.2 18.2 -7.4 15.15 -7.15 12.55 -7.6 10.2 -8.65 7.35 -11.2 5.8 -14.0 4.75 -17.35 5.25 -17.85 6.85 -13.0 7.65 -11.45 10.5 -8.9 12.8 -7.9 15.4 -7.4 18.7 -7.65" fill="#059913" fill-rule="evenodd" stroke="none"/>
    <path d="M15.2 -32.2 L13.15 -30.4 11.35 -28.55 9.1 -24.45 7.55 -20.85 7.35 -19.55 6.3 -19.25 9.35 -26.0 10.85 -28.3 12.65 -30.1 14.7 -31.95 15.2 -32.2" fill="#059913" fill-rule="evenodd" stroke="none"/>
    <path d="M20.2 -29.85 L21.45 -30.4 20.45 -29.85 18.65 -28.55 15.85 -25.7 14.1 -23.1 13.55 -22.1 13.05 -22.1 13.55 -23.1 16.6 -27.0 20.2 -29.85" fill="#059913" fill-rule="evenodd" stroke="none"/>
    <path d="M33.4 -17.9 L31.05 -17.1 28.75 -16.8 26.15 -16.8 23.85 -17.05 21.55 -17.55 16.1 -19.05 14.85 -19.55 12.5 -20.05 8.9 -20.0 8.9 -20.25 10.7 -20.55 12.5 -20.55 14.8 -20.05 19.75 -18.3 24.1 -17.3 26.7 -17.05 29.0 -17.1 31.6 -17.35 33.9 -18.15 33.4 -17.9" fill="#059913" fill-rule="evenodd" stroke="none"/>
  </g>
  <defs>
    <linearGradient gradientTransform="matrix(0.0294, 0.0, 0.0, 0.0294, 26.2, -19.75)" gradientUnits="userSpaceOnUse" id="gradient0" spreadMethod="pad" x1="-819.2" x2="819.2">
      <stop offset="0.00392156862745098" stop-color="#3ace41"/>
      <stop offset="0.48627450980392156" stop-color="#19b220"/>
      <stop offset="1.0" stop-color="#037c09"/>
    </linearGradient>
  </defs>
</svg>
