<?xml version="1.0" encoding="UTF-8" standalone="no"?>
<svg xmlns:xlink="http://www.w3.org/1999/xlink" height="49.55px" width="38.0px" xmlns="http://www.w3.org/2000/svg">
  <g transform="matrix(1.0, 0.0, 0.0, 1.0, 3.35, 44.25)">
    <path d="M24.7 -39.65 L23.95 -39.25 24.6 -39.35 25.35 -39.4 26.8 -39.95 34.15 -44.25 34.65 -44.0 32.9 -41.25 32.15 -39.4 30.7 -33.5 31.6 -33.5 31.15 -31.75 30.85 -29.5 31.0 -27.05 31.8 -28.3 32.05 -29.35 32.5 -27.6 32.2 -23.25 31.6 -21.15 31.2 -20.35 33.05 -21.7 33.0 -18.5 31.3 -11.05 28.2 -5.5 23.85 -0.55 20.1 2.15 18.05 3.25 13.7 5.05 10.05 5.3 7.4 4.1 6.05 3.35 4.35 1.4 3.15 -0.8 2.05 -4.95 -0.6 -8.8 -3.2 -15.0 -3.35 -16.4 -3.05 -19.7 -1.7 -25.8 1.6 -32.55 2.4 -30.0 4.6 -32.45 13.4 -38.75 13.55 -37.05 16.5 -38.05 25.25 -42.9 24.9 -41.8 24.7 -39.65" fill="url(#gradient0)" fill-rule="evenodd" stroke="none"/>
    <path d="M25.35 -32.85 L21.9 -29.2 11.65 -18.9 6.2 -13.05 2.75 -8.3 1.8 -6.0 1.4 -4.35 0.9 -3.0 0.8 -0.8 0.35 -1.6 0.3 -2.35 0.4 -3.4 1.15 -6.7 2.25 -8.7 3.8 -11.0 5.9 -13.6 11.1 -19.3 17.05 -24.7 25.35 -32.85" fill="#059913" fill-rule="evenodd" stroke="none"/>
    <path d="M19.25 -6.1 L21.6 -8.3 21.25 -7.8 18.95 -5.65 16.35 -3.9 13.85 -3.15 11.3 -2.95 7.6 -3.85 4.95 -5.55 2.4 -8.0 2.6 -8.7 6.3 -5.15 7.75 -4.15 11.45 -3.3 13.95 -3.5 16.45 -4.3 19.25 -6.1" fill="#059913" fill-rule="evenodd" stroke="none"/>
    <path d="M4.55 -26.0 L3.6 -23.45 2.85 -21.0 2.85 -16.25 3.2 -12.4 3.6 -11.15 2.8 -10.45 2.3 -17.8 2.55 -20.55 3.3 -23.0 4.2 -25.55 4.55 -26.0" fill="#059913" fill-rule="evenodd" stroke="none"/>
    <path d="M10.0 -26.35 L10.85 -27.45 10.2 -26.45 9.3 -24.45 8.15 -20.65 7.8 -17.55 7.85 -16.4 7.4 -16.15 7.35 -17.3 8.2 -22.15 10.0 -26.35" fill="#059913" fill-rule="evenodd" stroke="none"/>
    <path d="M27.55 -22.5 L27.2 -22.0 25.6 -20.2 23.65 -18.85 21.4 -17.65 19.25 -16.75 16.95 -16.1 11.5 -14.8 10.15 -14.65 7.9 -14.0 4.7 -12.3 4.6 -12.5 6.05 -13.6 7.6 -14.45 9.9 -15.1 15.05 -15.9 19.4 -17.1 21.75 -18.15 23.75 -19.2 25.9 -20.7 27.55 -22.5" fill="#059913" fill-rule="evenodd" stroke="none"/>
  </g>
  <defs>
    <linearGradient gradientTransform="matrix(0.0259, -0.0139, 0.0139, 0.0259, 20.1, -20.25)" gradientUnits="userSpaceOnUse" id="gradient0" spreadMethod="pad" x1="-819.2" x2="819.2">
      <stop offset="0.00392156862745098" stop-color="#3ace41"/>
      <stop offset="0.48627450980392156" stop-color="#19b220"/>
      <stop offset="1.0" stop-color="#037c09"/>
    </linearGradient>
  </defs>
</svg>
