<?xml version="1.0" encoding="UTF-8" standalone="no"?>
<svg xmlns:xlink="http://www.w3.org/1999/xlink" height="312.3px" width="271.45px" xmlns="http://www.w3.org/2000/svg">
  <g transform="matrix(1.0, 0.0, 0.0, 1.0, 157.1, 56.1)">
    <path d="M45.3 229.75 L45.3 245.8 43.4 249.9 29.9 256.2 25.2 256.2 25.2 221.05 39.85 224.15 43.4 227.35 45.3 229.75" fill="#333d56" fill-rule="evenodd" stroke="none"/>
    <path d="M111.25 192.55 L114.35 195.8 114.35 209.1 112.45 213.55 99.65 220.35 94.25 219.0 34.9 207.75 25.2 206.4 25.2 177.0 51.9 181.1 83.8 186.95 111.25 192.55" fill="#333d56" fill-rule="evenodd" stroke="none"/>
    <path d="M53.8 79.85 L58.7 87.0 54.45 91.85 66.55 120.15 89.25 123.6 89.25 134.4 72.95 143.0 65.35 141.2 58.55 142.65 46.45 150.15 41.0 157.95 25.15 162.5 25.15 115.25 45.75 117.65 32.2 106.0 28.25 106.0 26.8 109.9 25.15 109.9 25.15 85.75 42.65 79.45 53.8 79.85" fill="#333d56" fill-rule="evenodd" stroke="none"/>
    <path d="M2.05 -48.85 L12.15 -44.55 12.4 2.6 17.4 3.95 19.5 5.0 23.0 7.85 23.75 86.2 25.2 85.7 25.2 109.9 15.75 109.9 15.75 100.7 12.15 100.7 12.65 104.3 7.2 104.3 4.8 112.85 25.2 115.25 25.2 162.5 9.1 167.3 -22.35 165.6 -27.3 168.3 -27.3 171.9 -14.8 172.25 25.2 177.0 25.2 206.4 21.15 205.7 -17.4 204.85 -37.0 207.55 25.2 221.05 25.2 256.2 23.0 256.2 -43.85 241.9 -43.85 117.3 -22.8 110.75 -13.8 111.45 -14.3 103.3 -22.35 102.3 -22.8 91.35 -28.45 91.35 -28.45 85.7 -37.7 85.7 -38.65 91.35 -43.85 93.75 -43.85 10.9 -35.3 10.9 -35.3 8.0 -33.95 6.9 -29.2 3.95 -24.45 2.4 -24.45 -43.85 -20.7 -46.75 -15.5 -48.85 -15.0 -54.05 -8.35 -55.65 -4.6 -55.45 -0.35 -54.6 2.05 -53.75 2.05 -48.85" fill="#333d56" fill-rule="evenodd" stroke="none"/>
    <path d="M7.85 115.6 L7.05 115.6 7.6 115.85 8.35 116.1 9.9 116.35 18.4 116.0 18.7 116.5 15.85 118.1 14.3 119.35 10.2 123.85 11.05 124.3 9.75 125.65 8.45 127.4 7.45 129.7 8.75 128.95 9.5 128.15 9.0 129.95 6.7 133.6 5.15 135.15 4.45 135.65 6.7 135.4 5.15 138.2 0.1 143.9 -5.3 147.3 -11.45 149.7 -16.05 150.25 -18.4 150.25 -23.05 149.75 -26.4 148.2 -28.2 145.95 -29.0 144.65 -29.6 142.1 -29.6 139.55 -28.6 135.4 -29.1 130.75 -28.45 124.1 -27.85 122.75 -26.05 120.0 -22.0 115.25 -15.9 110.85 -16.35 113.5 -13.25 112.4 -2.5 111.05 -3.25 112.6 -0.15 113.05 9.9 113.0 9.1 113.8 7.85 115.6" fill="url(#gradient0)" fill-rule="evenodd" stroke="none"/>
    <path d="M5.2 121.9 L0.45 123.5 -13.55 127.7 -21.05 130.25 -26.35 132.8 -28.3 134.4 -29.45 135.7 -30.55 136.6 -31.65 138.5 -31.65 137.55 -31.35 136.95 -30.8 136.0 -28.6 133.45 -26.65 132.2 -24.15 130.9 -21.1 129.65 -13.8 127.1 -6.0 125.15 5.2 121.9" fill="#059913" fill-rule="evenodd" stroke="none"/>
    <path d="M-12.95 142.6 L-9.85 141.8 -10.35 142.05 -13.45 142.85 -16.5 143.1 -19.1 142.65 -21.45 141.6 -24.3 139.05 -25.85 136.25 -26.9 132.9 -26.4 132.4 -24.8 137.25 -24.0 138.8 -21.15 141.35 -18.85 142.35 -16.25 142.85 -12.95 142.6" fill="#059913" fill-rule="evenodd" stroke="none"/>
    <path d="M-16.45 118.05 L-18.5 119.85 -20.3 121.7 -22.55 125.8 -24.1 129.4 -24.3 130.7 -25.35 131.0 -22.3 124.25 -20.8 121.95 -19.0 120.15 -16.95 118.3 -16.45 118.05" fill="#059913" fill-rule="evenodd" stroke="none"/>
    <path d="M-11.45 120.4 L-10.2 119.85 -11.2 120.4 -13.0 121.7 -15.8 124.55 -17.55 127.15 -18.1 128.15 -18.6 128.15 -18.1 127.15 -15.05 123.25 -11.45 120.4" fill="#059913" fill-rule="evenodd" stroke="none"/>
    <path d="M1.75 132.35 L-0.6 133.15 -2.9 133.45 -5.5 133.45 -7.8 133.2 -10.1 132.7 -15.55 131.2 -16.8 130.7 -19.15 130.2 -22.75 130.25 -22.75 130.0 -20.95 129.7 -19.15 129.7 -16.85 130.2 -11.9 131.95 -7.55 132.95 -4.95 133.2 -2.65 133.15 -0.05 132.9 2.25 132.1 1.75 132.35" fill="#059913" fill-rule="evenodd" stroke="none"/>
    <path d="M-81.9 17.75 L-58.8 10.95 -43.85 10.95 -43.85 93.75 Q-47.05 95.2 -50.25 96.75 L-58.25 97.1 -63.55 99.35 -67.75 101.8 -70.85 104.1 -72.95 106.85 -73.9 109.8 -73.9 113.15 -72.95 116.95 -70.85 121.2 -65.45 123.6 -43.85 117.3 -43.85 241.85 -78.35 234.7 -99.95 228.75 -128.05 219.5 -146.5 205.7 -155.25 194.75 -156.85 183.8 -124.25 173.3 -121.4 160.1 -117.9 151.7 -128.3 134.55 -133.5 106.5 -117.45 72.7 -81.9 17.75" fill="#333d56" fill-rule="evenodd" stroke="none"/>
    <path d="M34.9 128.35 L11.0 124.45 0.85 120.0 -20.2 117.95 -20.2 121.4 -27.55 121.4 -34.65 120.7 -35.55 113.2 -28.5 109.25 -22.1 109.95 -21.15 113.9 8.15 115.25 20.0 122.05 42.0 125.65 34.9 128.35" fill="#59637c" fill-rule="evenodd" stroke="none"/>
    <path d="M-13.8 111.3 L5.35 109.25 2.95 126.0 -12.15 125.65 -13.8 111.3" fill="#333d56" fill-rule="evenodd" stroke="none"/>
    <path d="M43.15 189.65 L98.25 200.75 98.25 222.05 36.05 208.6 -2.45 204.65 -37.95 207.9 -38.9 207.2 -39.85 206.2 -41.95 203.1 -42.7 201.4 -42.9 199.4 -42.45 197.35 -41.5 195.3 -39.6 193.25 -36.55 191.35 -32.25 189.65 -26.35 188.3 -19.0 187.25 -10.05 186.4 1.05 186.25 43.15 189.65" fill="#59637c" fill-rule="evenodd" stroke="none"/>
    <path d="M11.25 -44.85 L11.25 7.4 7.2 8.55 2.5 9.4 -2.25 9.75 -7.2 9.75 -11.95 9.4 -16.65 8.75 -20.9 7.55 -24.45 5.85 -24.45 -44.35 -20.0 -43.3 -15.5 -42.65 -6.25 -42.1 -1.55 -42.45 7.2 -43.65 11.25 -44.85" fill="#59637c" fill-rule="evenodd" stroke="none"/>
    <path d="M1.3 -42.45 L8.4 -43.3 8.4 6.35 4.6 7.7 1.05 8.55 -5.8 9.1 -12.4 8.55 -19.0 7.4 -19.0 -42.65 -11.45 -42.1 -4.85 -42.1 1.3 -42.45" fill="#7577af" fill-rule="evenodd" stroke="none"/>
    <path d="M3.2 -42.65 L3.2 7.4 -1.05 8.55 -5.1 8.9 -9.1 8.75 -12.4 7.9 -12.4 -42.45 -2.45 -41.95 3.2 -42.65" fill="#8989b7" fill-rule="evenodd" stroke="none"/>
    <path d="M-6.75 -40.9 L-5.1 -41.3 -4.85 -41.45 -4.85 7.9 -6.95 8.9 -6.95 8.75 -8.4 7.9 -8.4 -41.95 -4.85 -41.45 -6.75 -41.1 -7.2 -40.9 -6.75 -40.9" fill="#b2afd8" fill-rule="evenodd" stroke="none"/>
    <path d="M23.75 7.0 L23.75 82.8 13.6 84.15 8.4 84.7 -1.3 85.2 -25.65 84.7 -55.7 82.3 -55.7 18.45 -24.45 18.45 -24.45 10.45 -12.65 12.85 2.75 12.85 6.5 12.5 10.3 11.8 14.3 10.8 18.55 9.25 23.75 7.0" fill="#7577af" fill-rule="evenodd" stroke="none"/>
    <path d="M19.05 10.45 L19.05 82.8 15.95 83.65 10.05 84.5 1.3 85.05 -5.1 85.2 -5.1 13.35 4.4 12.85 15.95 11.1 19.05 10.45" fill="#7577af" fill-rule="evenodd" stroke="none"/>
    <path d="M18.1 10.6 L18.1 82.8 15.25 83.65 9.8 84.5 1.75 85.05 -4.15 85.2 -4.15 13.35 4.6 12.85 15.25 11.3 18.1 10.6" fill="#7a7cb2" fill-rule="evenodd" stroke="none"/>
    <path d="M-3.45 13.2 L4.6 12.85 9.6 12.3 17.4 10.8 17.4 82.8 14.8 83.65 9.8 84.5 2.25 85.05 -3.2 85.2 -3.2 49.2 -3.45 31.25 -3.45 13.2" fill="#7f82b7" fill-rule="evenodd" stroke="none"/>
    <path d="M-2.45 31.25 L-2.7 13.2 7.0 12.65 14.1 11.5 16.65 10.8 16.65 82.8 14.3 83.65 9.6 84.5 2.75 85.05 -2.25 85.2 -2.45 67.1 -2.45 31.25" fill="#8487ba" fill-rule="evenodd" stroke="none"/>
    <path d="M11.25 12.0 L15.75 10.95 15.75 82.8 13.6 83.65 9.6 84.5 3.45 85.05 -1.3 85.2 -1.55 67.1 -1.55 49.2 -2.0 13.2 7.0 12.65 11.25 12.0" fill="#8c8cbf" fill-rule="evenodd" stroke="none"/>
    <path d="M10.75 12.0 L15.0 10.95 15.0 82.8 13.1 83.65 9.35 84.5 3.9 85.05 -0.35 85.2 -0.6 67.1 -0.6 49.2 -1.05 13.2 5.1 12.85 10.75 12.0" fill="#9191c1" fill-rule="evenodd" stroke="none"/>
    <path d="M8.65 12.3 L14.1 11.1 14.1 82.8 12.4 83.65 9.1 84.5 4.4 85.05 0.6 85.2 -0.35 13.0 8.65 12.3" fill="#9696c6" fill-rule="evenodd" stroke="none"/>
    <path d="M0.6 31.1 L0.35 13.0 7.0 12.65 13.35 11.3 13.35 82.8 11.95 83.65 9.1 84.5 4.6 85.05 1.55 85.2 1.05 49.0 0.6 31.1" fill="#9b9bc9" fill-rule="evenodd" stroke="none"/>
    <path d="M6.75 12.65 L12.4 11.3 12.4 82.8 11.25 83.65 8.9 84.5 5.1 85.05 2.5 85.2 2.25 67.1 1.75 49.0 1.3 13.0 6.75 12.65" fill="#a3a0ce" fill-rule="evenodd" stroke="none"/>
    <path d="M2.25 30.95 L2.0 12.85 5.55 12.85 8.9 12.3 11.45 11.5 11.45 82.8 10.55 83.65 8.65 84.5 5.55 85.05 3.2 85.2 2.75 49.0 2.25 30.95" fill="#a8a5d1" fill-rule="evenodd" stroke="none"/>
    <path d="M3.2 30.95 L2.75 12.85 5.8 12.85 9.6 12.0 10.75 11.5 10.75 82.8 9.35 84.15 6.05 85.05 4.15 85.2 3.9 67.1 3.45 49.0 3.2 30.95" fill="#adaad6" fill-rule="evenodd" stroke="none"/>
    <path d="M6.5 12.65 L9.8 11.65 9.8 82.8 8.85 84.2 6.5 85.05 5.05 85.2 3.65 12.85 6.5 12.65" fill="#b2afd8" fill-rule="evenodd" stroke="none"/>
    <path d="M-61.35 18.3 L-61.35 83.5 -69.85 87.95 -76.0 92.55 -81.45 97.3 -86.2 102.25 -89.7 107.2 -92.35 112.7 -93.5 118.3 -93.05 124.25 -90.7 130.6 -109.35 138.65 -109.35 150.4 -102.95 150.4 -100.6 158.75 -89.25 159.95 -85.25 155.0 -79.1 156.55 -78.85 199.55 -88.55 198.7 -94.45 197.85 -106.25 196.3 -127.1 192.05 -125.45 182.65 -124.0 173.25 -122.35 163.9 -120.45 154.5 -131.1 128.7 -133.45 118.8 -134.4 108.75 -133.7 98.85 -131.8 89.15 -129.0 79.55 -125.2 70.35 -120.7 61.65 -115.95 53.3 -110.55 45.75 -105.1 38.95 -99.9 32.8 -94.7 27.65 -89.95 23.4 -85.7 20.35 -82.4 18.45 -61.35 18.3" fill="#7577af" fill-rule="evenodd" stroke="none"/>
    <path d="M25.2 255.9 L-20.9 245.8 -106.05 227.7 -110.75 226.15 -129.7 220.9 -134.2 219.35 -138.45 217.65 -142.45 215.75 -146.0 213.55 -149.3 211.15 -152.15 208.25 -154.3 204.85 -155.95 200.9 -156.9 196.5 -157.1 191.55 -156.4 185.75 -149.05 190.85 -142.0 194.95 -135.35 198.35 -128.75 201.25 -118.1 204.85 -105.55 208.1 -95.9 210.3 25.2 235.25 25.2 255.9" fill="#59637c" fill-rule="evenodd" stroke="none"/>
    <path d="M19.75 254.7 L17.15 254.0 14.3 253.5 11.7 252.8 8.9 252.3 6.25 251.6 0.85 250.6 -1.75 249.9 -4.6 249.4 -7.2 248.7 -10.05 248.2 -12.65 247.5 -15.5 247.0 -18.1 246.3 -62.3 236.95 -97.05 229.75 -101.8 228.25 -111.45 225.5 -116.45 224.3 -126.15 221.4 -130.65 219.7 -134.9 217.8 -138.9 215.6 -142.45 213.2 -145.55 210.3 -148.15 207.2 -150.0 203.5 -151.45 199.2 -151.9 194.45 -151.45 189.15 -143.85 194.1 -136.55 198.0 -129.2 201.25 -121.65 204.0 -113.85 206.4 -105.55 208.4 -86.65 212.7 -16.65 226.7 -9.8 228.25 25.2 235.25 25.2 255.9 22.6 255.2 19.75 254.7" fill="#5b6682" fill-rule="evenodd" stroke="none"/>
    <path d="M20.25 254.7 L15.0 253.65 12.65 252.95 -10.3 248.0 -51.4 239.35 -60.4 237.25 -87.85 231.65 -92.55 230.1 -117.85 223.1 -127.3 219.5 -131.6 217.45 -135.6 215.1 -138.9 212.35 -142.0 209.1 -144.1 205.7 -145.75 201.6 -146.5 197.15 -146.25 192.05 -142.45 194.6 -134.9 199.05 -122.8 204.0 -118.6 205.35 -105.8 208.95 -82.4 213.9 -77.45 215.1 -64.65 217.65 -51.65 220.05 -45.25 221.4 25.2 235.25 25.2 255.9 22.6 255.35 20.25 254.7" fill="#5e6887" fill-rule="evenodd" stroke="none"/>
    <path d="M25.2 255.9 L11.0 252.8 6.5 251.6 -24.7 244.8 -78.6 233.5 -83.35 231.95 -109.6 224.8 -120.0 221.2 -129.0 216.95 -132.75 214.4 -136.05 211.3 -138.65 208.1 -140.35 204.3 -141.5 200.2 -141.5 195.45 -137.7 197.85 -129.7 202.1 -121.15 205.35 -111.95 208.25 -107.25 209.45 -83.1 214.4 -78.15 215.25 -56.6 219.5 -45.05 221.9 -27.3 225.15 25.2 235.25 25.2 255.9" fill="#606889" fill-rule="evenodd" stroke="none"/>
    <path d="M25.2 235.25 L25.2 255.9 -9.35 248.0 -69.65 235.55 -74.35 234.05 -101.55 226.7 -112.45 223.25 -117.4 221.2 -122.1 219.0 Q-124.15 217.7 -126.15 216.45 L-129.95 213.7 -132.75 210.65 -134.9 207.05 -136.3 203.1 -136.55 198.85 -132.75 201.25 -128.75 203.3 -119.75 206.9 -110.05 209.8 -94.9 213.2 -63.95 218.65 -59.25 219.7 -48.6 221.55 -16.9 227.35 20.0 234.2 25.2 235.25" fill="#636b8e" fill-rule="evenodd" stroke="none"/>
    <path d="M25.2 255.9 L-30.15 243.6 -60.4 237.45 -70.35 234.35 -75.8 233.0 -104.85 224.95 -115.25 220.9 -119.75 218.5 -123.8 215.75 -127.1 212.85 -129.45 209.6 -131.1 206.05 -131.6 202.1 -127.8 204.3 -123.55 206.4 -119.05 208.25 -114.3 209.95 -103.9 212.7 -98.5 213.9 -81.7 216.8 -65.15 219.35 -50.25 222.05 -22.1 226.85 6.25 231.95 11.0 232.65 25.2 235.25 25.2 255.9" fill="#666d93" fill-rule="evenodd" stroke="none"/>
    <path d="M25.2 255.9 L14.3 253.3 7.0 251.8 -18.8 246.15 -51.4 239.35 -61.35 236.25 -85.25 230.25 -97.55 226.7 -103.2 224.8 -108.4 222.75 -113.4 220.55 -117.6 218.0 -121.15 215.4 -124.0 212.35 -125.9 209.1 -126.6 205.5 -122.8 207.75 -118.6 209.6 -108.65 213.05 -103.2 214.4 -91.6 216.8 -79.55 218.65 -67.5 220.2 -45.75 223.25 -20.45 227.7 25.2 235.25 25.2 255.9" fill="#686d99" fill-rule="evenodd" stroke="none"/>
    <path d="M25.2 255.9 L2.25 250.4 -24.2 244.8 -42.2 241.2 -52.35 238.15 -77.2 232.15 -89.95 228.75 -96.1 226.85 -101.8 224.8 -107.25 222.6 -111.7 220.35 -115.75 217.8 -118.8 215.1 -120.95 212.0 -121.9 208.75 -118.1 210.8 -113.6 212.7 -108.4 214.4 -97.3 217.3 -91.15 218.5 -71.75 221.4 -36.3 225.65 -21.15 228.25 0.1 231.45 25.2 235.25 25.2 255.9" fill="#6b709e" fill-rule="evenodd" stroke="none"/>
    <path d="M25.2 255.9 L-11.2 247.5 -33.0 243.05 -43.15 240.0 -55.7 237.1 -68.95 233.85 -89.0 228.75 -100.6 224.65 -105.55 222.4 -109.8 220.2 -113.4 217.65 -115.75 214.9 -116.9 212.0 -113.15 214.05 -108.65 215.95 -103.45 217.45 -91.4 220.2 -78.15 222.25 -32.5 227.35 -27.55 228.05 -23.05 228.9 10.05 233.35 25.2 235.25 25.2 255.9" fill="#6d72a3" fill-rule="evenodd" stroke="none"/>
    <path d="M25.2 235.25 L25.2 255.9 20.0 254.7 4.85 250.9 -24.2 244.95 -28.95 243.4 -34.4 241.85 -75.05 232.3 -88.05 228.75 -94.2 226.7 -99.4 224.65 -103.9 222.6 -107.7 220.35 -110.3 218.0 -111.7 215.4 -107.95 217.3 -103.2 219.0 -98.0 220.55 -91.85 221.9 -85.5 223.1 -71.3 225.15 -56.6 226.7 -29.2 229.05 -18.1 230.45 -13.8 231.15 20.25 234.7 22.8 234.85 25.2 235.25" fill="#7072a5" fill-rule="evenodd" stroke="none"/>
    <path d="M25.2 255.9 L9.8 251.95 -15.0 247.0 -19.75 245.45 -31.55 242.4 -60.15 235.9 -81.45 230.75 -93.25 227.05 -98.25 225.15 -102.05 223.1 -105.1 221.05 -106.75 218.85 -102.95 220.7 -98.25 222.25 -92.55 223.8 -79.55 226.15 -56.85 228.75 -14.3 232.15 -4.85 233.5 25.2 235.25 25.2 255.9" fill="#7275aa" fill-rule="evenodd" stroke="none"/>
    <path d="M25.2 255.9 L10.55 252.1 -6.0 248.9 -10.75 247.35 -16.45 245.8 -29.65 242.55 -59.95 236.05 -74.6 232.65 -87.35 229.25 -92.55 227.55 -96.85 225.65 -99.9 223.95 -101.8 222.05 -98.0 223.95 -93.05 225.5 -87.35 226.85 -80.75 228.05 -65.85 229.95 -57.8 230.75 -41.5 232.15 -18.1 233.7 0.1 235.25 4.4 235.9 25.2 235.25 25.2 255.9" fill="#7577af" fill-rule="evenodd" stroke="none"/>
    <path d="M-106.75 140.15 L2.95 157.75 2.25 169.7 -106.75 150.4 -106.75 140.15" fill="#59637c" fill-rule="evenodd" stroke="none"/>
    <path d="M40.1 158.25 L2.25 169.85 2.0 158.25 39.35 148.2 40.1 158.25" fill="#7577af" fill-rule="evenodd" stroke="none"/>
    <path d="M70.1 136.4 L70.1 145.45 58.75 146.15 54.75 146.8 51.9 147.65 49.3 149.2 43.65 154.3 40.1 158.25 38.65 147.0 42.2 143.55 45.75 141.0 48.85 139.15 52.15 137.95 55.7 137.1 59.7 136.55 70.1 136.4" fill="#59637c" fill-rule="evenodd" stroke="none"/>
    <path d="M89.5 124.65 L89.5 135.9 70.1 145.95 70.1 135.9 89.5 124.65" fill="#7577af" fill-rule="evenodd" stroke="none"/>
    <path d="M52.4 92.55 L67.75 121.4 57.1 125.15 30.85 102.25 52.4 92.55" fill="#59637c" fill-rule="evenodd" stroke="none"/>
    <path d="M49.3 93.75 L66.35 121.9 57.8 124.65 36.3 99.9 49.3 93.75" fill="#7577af" fill-rule="evenodd" stroke="none"/>
    <path d="M46.25 94.75 L63.25 122.55 59.45 123.45 39.35 98.85 46.25 94.75" fill="#8989b7" fill-rule="evenodd" stroke="none"/>
    <path d="M44.55 96.45 L60.9 121.9 41.5 98.15 44.55 96.45" fill="#b2afd8" fill-rule="evenodd" stroke="none"/>
    <path d="M-21.85 94.75 L11.45 94.75 11.45 102.8 -21.85 102.8 -21.85 94.75" fill="#59637c" fill-rule="evenodd" stroke="none"/>
    <path d="M21.65 93.9 L50.0 81.45 55.7 88.25 27.3 100.55 21.65 93.9" fill="#59637c" fill-rule="evenodd" stroke="none"/>
    <path d="M-16.45 94.75 L8.4 94.75 8.4 102.8 -16.45 102.8 -16.45 94.75" fill="#7577af" fill-rule="evenodd" stroke="none"/>
    <path d="M26.15 91.85 L47.4 82.65 53.1 89.3 32.05 98.5 26.15 91.85" fill="#7577af" fill-rule="evenodd" stroke="none"/>
    <path d="M-7.9 94.75 L0.6 94.75 0.6 102.8 -7.9 102.8 -7.9 94.75" fill="#b2afd8" fill-rule="evenodd" stroke="none"/>
    <path d="M33.45 88.8 L40.8 85.55 46.5 92.2 Q42.9 93.85 39.35 95.45 L33.45 88.8" fill="#b2afd8" fill-rule="evenodd" stroke="none"/>
    <path d="M2.0 111.15 L0.6 126.15 -9.35 126.15 -11.0 111.15 2.0 111.15" fill="#7577af" fill-rule="evenodd" stroke="none"/>
    <path d="M0.6 111.15 L-1.75 126.0 -8.15 126.0 -9.35 111.0 0.6 111.15" fill="#8989b7" fill-rule="evenodd" stroke="none"/>
    <path d="M-2.0 111.15 L-3.45 125.15 -6.95 125.15 -6.95 111.15 -2.0 111.15" fill="#b2afd8" fill-rule="evenodd" stroke="none"/>
    <path d="M20.25 90.85 L-26.6 90.85 -26.6 86.9 20.25 86.9 20.25 90.85" fill="#59637c" fill-rule="evenodd" stroke="none"/>
    <path d="M26.85 109.6 L15.5 109.6 15.5 101.9 26.85 101.9 26.85 109.6" fill="#59637c" fill-rule="evenodd" stroke="none"/>
    <path d="M-20.7 86.9 L8.4 86.9 8.4 90.85 -20.7 90.85 -20.7 86.9" fill="#7577af" fill-rule="evenodd" stroke="none"/>
    <path d="M23.75 109.6 L16.9 109.6 16.9 101.9 23.75 101.9 23.75 109.6" fill="#8989b7" fill-rule="evenodd" stroke="none"/>
    <path d="M-9.55 86.9 L0.35 86.9 0.35 90.85 -9.55 90.85 -9.55 86.9" fill="#b2afd8" fill-rule="evenodd" stroke="none"/>
    <path d="M19.5 101.9 L21.9 101.9 21.9 109.6 19.5 109.6 19.5 101.9" fill="#b2afd8" fill-rule="evenodd" stroke="none"/>
    <path d="M24.95 184.2 L31.6 195.3 27.8 203.5 20.45 208.6 9.6 209.95 -0.6 207.9 -10.5 202.8 -44.55 191.7 -42.45 188.3 -33.2 188.65 -24.95 190.0 -25.4 180.75 -21.65 174.8 -12.4 172.95 -4.35 172.95 14.1 175.45 24.95 184.2" fill="#333d56" fill-rule="evenodd" stroke="none"/>
    <path d="M-7.9 142.05 L-31.35 138.1 Q-36.55 135.75 -41.8 133.5 L-62.75 131.45 -62.75 134.8 -77.25 134.1 -78.2 126.6 Q-74.65 124.7 -71.05 122.9 L-64.5 123.45 Q-63.95 125.3 -63.55 127.3 L-34.2 128.7 -22.55 135.5 -0.65 139.45 -7.9 142.05" fill="#59637c" fill-rule="evenodd" stroke="none"/>
    <path d="M-61.8 18.45 L-61.8 80.05 -68.7 83.15 -88.05 101.75 -117.85 71.55 -115.95 64.2 -113.15 57.05 -109.8 50.2 -105.8 43.55 -101.05 37.25 -95.4 31.1 -89.25 25.3 -82.15 19.65 -61.8 18.45" fill="#7577af" fill-rule="evenodd" stroke="none"/>
    <path d="M-61.8 18.45 L-61.8 76.5 -63.5 77.15 -64.9 78.05 -68.2 79.4 -72.7 83.85 -77.45 88.1 -79.55 90.35 -86.65 97.0 -103.9 79.05 -114.55 68.45 -112.65 61.5 -110.05 54.8 -107.0 48.35 -103.2 42.0 -98.7 36.05 -93.5 30.4 -87.6 24.95 -81.0 19.65 -71.3 19.0 -68.95 19.0 -61.8 18.45" fill="#7a7cb2" fill-rule="evenodd" stroke="none"/>
    <path d="M-61.8 18.45 L-61.8 72.9 -67.75 75.65 -85.0 92.05 -101.55 75.45 -104.6 72.05 -111.25 65.4 -109.6 58.9 -107.25 52.6 -104.4 46.45 -100.85 40.65 -96.6 35.05 -91.6 29.55 -86.2 24.45 -79.8 19.5 -61.8 18.45" fill="#7f82b7" fill-rule="evenodd" stroke="none"/>
    <path d="M-61.8 18.45 L-61.8 69.5 -67.5 72.25 -83.6 87.45 -108.15 62.3 -106.5 56.2 -104.4 50.4 -101.55 44.6 -98.25 39.15 -94.45 34.0 -89.7 28.85 -84.5 24.1 -78.6 19.5 -61.8 18.45" fill="#8487ba" fill-rule="evenodd" stroke="none"/>
    <path d="M-77.45 19.5 L-61.8 18.45 -61.8 66.1 -65.85 67.8 -67.0 68.45 -81.9 82.65 -87.85 76.85 -93.5 70.85 -104.85 59.25 -103.2 53.6 -101.3 48.0 -98.7 42.7 -95.65 37.75 -92.1 32.8 -87.85 28.2 -82.85 23.75 -77.45 19.5" fill="#8c8cbf" fill-rule="evenodd" stroke="none"/>
    <path d="M-76.25 19.3 L-61.8 18.45 -61.8 62.5 -65.6 64.05 -66.8 64.7 -68.45 66.4 -80.5 77.85 -85.7 72.4 -88.55 69.85 -101.55 56.2 -100.15 50.9 -98.5 45.75 -96.1 41.0 -93.25 36.2 -89.7 31.75 -85.95 27.5 -81.45 23.25 -76.25 19.3" fill="#9191c1" fill-rule="evenodd" stroke="none"/>
    <path d="M-75.3 19.3 L-61.8 18.45 -61.8 58.9 -66.3 60.95 -69.4 64.05 -74.35 68.65 -75.8 70.2 -79.1 73.05 -98.7 53.3 -97.3 48.35 -95.65 43.75 -93.25 39.15 -90.7 34.85 -87.6 30.75 -84.05 26.65 -80.05 22.9 -75.3 19.3" fill="#9696c6" fill-rule="evenodd" stroke="none"/>
    <path d="M-74.15 19.15 L-61.8 18.45 -61.8 55.3 -65.85 57.2 -68.95 59.95 -70.35 61.5 -77.45 68.3 -81.9 63.85 -84.05 61.5 -88.8 57.05 -90.9 54.65 -95.4 50.2 -94.2 45.75 -92.55 41.5 -90.7 37.4 -88.3 33.5 -85.5 29.75 -82.15 25.95 -78.35 22.55 -74.15 19.15" fill="#9b9bc9" fill-rule="evenodd" stroke="none"/>
    <path d="M-72.95 19.15 L-61.8 18.45 -61.8 51.9 -65.6 53.6 -69.65 57.2 -70.8 58.6 -72.25 59.8 -76.0 63.5 -82.15 57.4 -85.95 53.3 -92.1 47.15 -90.9 43.2 -89.5 39.3 -87.85 35.7 -85.7 32.15 -83.1 28.55 -80.05 25.3 -76.7 22.2 -72.95 19.15" fill="#a3a0ce" fill-rule="evenodd" stroke="none"/>
    <path d="M-71.75 19.15 L-61.8 18.45 -61.8 48.35 -63.5 49.0 -64.2 49.5 -65.15 49.85 -74.6 58.75 -81.7 51.4 -83.6 49.7 -85.25 47.8 -89.0 44.05 -88.05 40.5 -86.65 37.05 -85.0 33.85 -83.1 30.55 -80.75 27.5 -78.15 24.6 -75.05 21.7 -71.75 19.15" fill="#a8a5d1" fill-rule="evenodd" stroke="none"/>
    <path d="M-78.6 26.3 L-76.25 23.75 -73.65 21.35 -70.6 19.0 -69.4 19.0 -68.45 18.8 -63.95 18.65 -63.0 18.45 -61.8 18.45 -61.8 44.75 -64.65 46.1 -67.75 49.2 -68.95 50.05 -73.15 54.15 -74.6 52.4 -76.25 50.9 -77.65 49.2 -81.0 45.95 -85.7 41.0 -83.8 34.85 -82.4 31.95 -78.6 26.3" fill="#adaad6" fill-rule="evenodd" stroke="none"/>
    <path d="M-76.25 25.3 L-74.35 23.05 -69.4 19.0 -61.8 18.45 -61.8 41.15 -64.45 42.35 -71.5 49.35 -82.4 38.1 -81.7 35.35 -80.75 32.65 -79.55 30.05 -76.25 25.3" fill="#b2afd8" fill-rule="evenodd" stroke="none"/>
    <path d="M-139.85 83.35 L-133.25 74.6 -127.1 70.85 -114.55 67.95 -105.35 70.5 -98.0 73.4 -92.1 76.85 -88.05 80.75 -85.5 85.35 -84.5 90.85 -85.0 97.0 -86.9 104.15 -92.8 108.4 -100.6 111.8 -111.95 111.5 -116.9 111.0 -125.2 109.45 -128.5 108.4 -131.6 107.05 -133.95 105.5 -136.05 103.6 -137.7 101.6 -138.9 99.35 -139.85 96.65 -140.35 93.75 -140.55 90.65 -140.35 87.05 -139.85 83.35" fill="#333d56" fill-rule="evenodd" stroke="none"/>
    <path d="M-104.85 157.05 L-99.4 155.85 -95.4 156.9 -92.35 158.1 -89.7 159.6 -88.05 161.3 -86.9 163.4 -86.4 165.75 -86.65 168.5 -87.6 171.55 -90.2 173.45 -93.5 174.8 -98.25 174.65 -102.05 174.1 -105.1 173.25 -107.45 172.05 -109.1 170.55 -110.05 168.3 -110.55 165.75 -110.55 162.5 -107.45 158.75 -104.85 157.05" fill="#333d56" fill-rule="evenodd" stroke="none"/>
    <path d="M-138.2 77.85 L-133.0 73.4 -125.65 70.35 -116.7 72.4 -109.6 74.8 -104.15 77.5 -100.35 80.6 -97.55 84.5 -95.65 89.15 -94.7 94.6 -94.2 101.25 -99.4 110.3 -111.95 113.7 -126.4 110.8 Q-129.9 108.6 -133.45 106.35 L-138.45 100.9 -141.5 95.1 -142.45 88.95 -141.3 83.15 -138.2 77.85" fill="#59637c" fill-rule="evenodd" stroke="none"/>
    <path d="M-104.4 156.9 L-100.6 157.75 -97.55 158.75 -95.15 159.95 -93.25 161.3 -92.1 163.0 -91.4 165.1 -90.9 167.45 -90.7 170.35 -93.05 174.1 -98.5 175.65 -104.6 174.3 -107.7 172.4 -109.8 170.2 -111.25 167.65 -111.45 165.1 -111.0 162.5 -109.8 160.1 -107.45 158.25 -104.4 156.9" fill="#59637c" fill-rule="evenodd" stroke="none"/>
    <path d="M-119.75 72.4 L-114.55 72.75 -110.3 73.75 -106.5 75.45 -103.45 77.7 -100.85 80.25 -98.7 83.15 -97.05 86.4 -95.9 89.8 -131.1 95.1 -119.75 72.4" fill="#59637c" fill-rule="evenodd" stroke="none"/>
    <path d="M-118.6 72.55 L-113.85 73.05 -109.8 74.1 -106.25 75.65 -103.45 77.7 -101.05 80.25 -98.95 82.95 -97.55 86.05 -96.35 89.15 -131.1 95.1 -129.45 92.35 -124.75 84.0 -123.3 81.1 -121.65 78.35 -120.25 75.45 -118.6 72.55" fill="#5e6682" fill-rule="evenodd" stroke="none"/>
    <path d="M-117.6 72.9 L-113.15 73.4 -109.35 74.45 -106.05 75.95 -103.45 77.85 -101.05 80.05 -99.2 82.65 -97.75 85.55 -96.6 88.45 -131.1 95.1 -129.45 92.35 -127.55 89.65 -117.6 72.9" fill="#606b87" fill-rule="evenodd" stroke="none"/>
    <path d="M-116.45 73.25 L-112.45 73.75 -108.9 74.8 -105.8 76.15 -103.2 78.05 -101.3 80.05 -99.4 82.45 -97.05 87.75 -122.6 93.2 -131.1 95.1 -127.3 89.65 -125.65 86.9 -121.9 81.45 -120.25 78.7 -116.45 73.25" fill="#666d8c" fill-rule="evenodd" stroke="none"/>
    <path d="M-115.25 73.6 L-111.45 74.1 -108.15 75.15 -105.55 76.5 -103.2 78.2 -101.3 80.05 -99.65 82.3 -97.3 87.05 -131.1 95.1 -129.0 92.55 -127.1 89.8 -119.3 79.05 -117.15 76.35 -115.25 73.6" fill="#6b7091" fill-rule="evenodd" stroke="none"/>
    <path d="M-114.1 73.95 L-110.75 74.6 -107.7 75.65 -105.35 76.85 -103.2 78.35 -101.55 80.05 -100.15 81.95 -98.7 84.15 -97.75 86.4 -106.05 88.45 -110.05 89.65 -122.8 92.9 -126.85 94.05 -131.1 95.1 -114.1 73.95" fill="#6d7296" fill-rule="evenodd" stroke="none"/>
    <path d="M-112.9 74.25 L-109.8 74.95 -107.25 75.8 -105.1 77.0 -103.2 78.35 -101.55 79.9 -100.35 81.6 -98.0 85.7 -131.1 95.1 -124.25 87.45 -119.75 82.15 -117.4 79.55 -115.25 76.85 -112.9 74.25" fill="#757a9e" fill-rule="evenodd" stroke="none"/>
    <path d="M-114.8 89.95 L-131.1 95.1 -111.7 74.45 -106.75 76.15 -103.2 78.55 -101.8 79.9 -99.4 83.15 -98.5 85.05 -106.5 87.6 -114.8 89.95" fill="#777ca3" fill-rule="evenodd" stroke="none"/>
    <path d="M-131.1 95.1 L-118.1 82.45 -110.55 74.8 -106.25 76.5 -104.6 77.5 -100.85 81.1 -98.95 84.15 -131.1 95.1" fill="#7c7fa8" fill-rule="evenodd" stroke="none"/>
    <path d="M-131.1 95.1 L-128.25 92.7 -125.65 90.15 -122.8 87.75 -117.6 82.65 -109.35 75.15 -105.55 76.85 -102.05 79.75 -99.2 83.5 -131.1 95.1" fill="#8282ad" fill-rule="evenodd" stroke="none"/>
    <path d="M-131.1 95.1 L-122.6 87.75 -116.7 82.95 -108.15 75.45 -105.1 77.35 -102.95 78.85 -102.25 79.75 -101.3 80.6 -99.4 82.8 -131.1 95.1" fill="#8487b2" fill-rule="evenodd" stroke="none"/>
    <path d="M-102.95 79.05 L-99.65 82.15 -131.1 95.1 -107.0 75.8 -104.6 77.7 -103.9 78.35 -102.95 79.05" fill="#8989b7" fill-rule="evenodd" stroke="none"/>
    <path d="M24.95 183.35 L27.1 186.25 28.95 189.3 30.15 192.55 30.4 195.6 30.15 198.7 28.95 201.6 27.3 204.15 25.2 206.2 22.35 207.9 19.05 208.95 15.5 209.45 11.95 209.3 8.4 208.4 5.1 207.05 1.75 205.2 -0.8 202.95 -3.2 200.05 -5.1 197.0 -6.0 193.75 -6.5 190.65 -6.0 187.6 -5.1 184.7 -3.45 182.15 -1.3 180.1 1.55 178.4 4.85 177.35 8.4 176.85 11.95 177.0 15.5 177.85 19.05 179.25 22.1 181.1 24.95 183.35" fill="#7577af" fill-rule="evenodd" stroke="none"/>
    <path d="M22.6 185.05 L24.7 187.45 26.15 190.0 27.1 192.55 27.3 195.3 27.1 197.65 26.15 200.05 24.7 202.3 22.8 204.0 20.7 205.35 17.85 206.4 14.8 206.7 11.95 206.55 8.9 205.85 6.05 204.85 3.45 203.3 -0.8 199.05 -2.25 196.3 -3.2 193.75 -3.45 191.0 -3.2 188.65 -2.25 186.25 -1.05 184.05 0.85 182.3 3.2 180.95 6.05 179.95 9.1 179.55 11.95 179.75 15.0 180.25 17.85 181.45 20.45 183.15 22.6 185.05" fill="#8989b7" fill-rule="evenodd" stroke="none"/>
    <path d="M21.9 185.05 L23.75 187.25 25.2 189.85 26.15 192.4 26.35 194.75 25.9 197.15 25.2 199.4 23.75 201.4 22.1 203.1 20.0 204.5 17.4 205.35 14.55 205.7 11.7 205.5 8.9 204.85 6.25 203.8 3.7 202.3 1.55 200.4 -0.35 198.35 -1.75 195.8 -2.7 193.25 -2.95 190.85 -2.7 188.45 -2.0 186.25 -0.6 184.2 1.05 182.45 3.45 181.1 6.05 180.25 8.9 179.95 11.7 179.95 14.55 180.6 17.4 181.65 19.75 183.15 21.9 185.05" fill="#8284af" fill-rule="evenodd" stroke="none"/>
    <path d="M21.15 185.2 L22.8 187.25 24.25 189.65 25.2 192.05 25.45 194.45 25.2 196.65 24.5 198.7 23.3 200.6 21.65 202.3 19.5 203.5 17.15 204.3 14.3 204.65 11.7 204.5 8.9 204.0 6.25 202.95 3.9 201.6 1.75 199.7 0.1 197.65 -1.3 195.3 -2.25 192.9 -2.45 190.5 -2.25 188.3 -1.3 186.05 -0.1 184.2 1.55 182.65 3.7 181.3 6.25 180.45 8.9 180.1 11.7 180.25 14.3 180.95 16.65 181.95 19.05 183.35 21.15 185.2" fill="#7a7aa5" fill-rule="evenodd" stroke="none"/>
    <path d="M18.8 202.45 L16.45 203.3 13.85 203.65 11.25 203.5 8.9 202.95 6.5 201.95 4.15 200.6 2.25 199.05 0.35 197.0 -0.8 194.75 -1.55 192.55 -1.75 190.35 -1.55 188.1 -0.8 186.05 0.35 184.35 2.0 182.85 3.9 181.65 6.25 180.75 8.9 180.45 11.25 180.6 13.85 181.1 16.2 182.15 20.45 185.05 22.1 187.1 23.3 189.3 24.0 191.55 24.25 193.75 24.0 195.95 23.55 198.0 22.35 199.7 20.7 201.25 18.8 202.45" fill="#72759e" fill-rule="evenodd" stroke="none"/>
    <path d="M19.75 185.2 L21.15 187.1 22.35 189.15 23.05 191.2 23.55 193.4 23.3 195.3 22.6 197.15 21.4 198.85 20.0 200.4 18.1 201.4 15.95 202.3 13.6 202.6 11.25 202.45 8.9 201.95 6.5 201.1 4.4 199.7 2.5 198.2 0.85 196.3 -0.35 194.25 -1.05 192.2 -1.3 190.0 -1.05 188.1 -0.35 186.05 2.25 183.0 4.15 181.95 6.25 181.1 8.65 180.75 11.0 180.95 13.35 181.45 15.75 182.3 17.85 183.5 19.75 185.2" fill="#686d93" fill-rule="evenodd" stroke="none"/>
    <path d="M21.65 196.65 L19.3 199.55 17.4 200.6 15.5 201.25 13.1 201.6 11.0 201.4 8.65 200.9 6.5 200.05 4.6 198.85 2.75 197.35 1.3 195.6 0.1 193.75 -0.6 191.7 -0.8 189.85 0.1 186.05 1.3 184.55 2.75 183.15 4.4 182.15 6.5 181.45 8.65 181.1 11.0 181.3 13.1 181.8 17.4 183.65 19.05 185.2 20.45 186.95 21.65 188.95 22.35 191.0 22.6 192.9 21.65 196.65" fill="#63688c" fill-rule="evenodd" stroke="none"/>
    <path d="M19.75 197.35 L16.9 199.55 15.0 200.2 12.9 200.6 10.75 200.4 8.65 199.9 6.75 199.2 4.85 198.0 3.2 196.65 1.75 195.1 0.6 193.25 0.1 191.35 -0.1 189.5 0.1 187.75 0.85 186.05 1.75 184.55 2.95 183.35 4.6 182.3 6.5 181.65 10.75 181.45 12.9 181.95 16.65 183.85 18.3 185.2 19.75 186.95 20.7 188.8 21.4 190.65 21.65 192.4 21.4 194.1 20.7 195.8 19.75 197.35" fill="#595e82" fill-rule="evenodd" stroke="none"/>
    <path d="M20.45 193.55 L19.05 196.5 17.85 197.65 14.55 199.2 12.65 199.55 10.55 199.4 6.75 198.2 5.1 197.15 3.45 195.8 2.25 194.25 1.3 192.55 0.6 190.85 0.35 189.15 0.6 187.6 2.0 184.7 3.45 183.5 4.85 182.65 6.75 181.95 8.65 181.65 10.55 181.8 14.3 183.0 15.95 184.05 17.6 185.4 18.8 186.95 19.75 188.65 20.45 190.35 20.45 193.55" fill="#54597a" fill-rule="evenodd" stroke="none"/>
    <path d="M18.8 194.45 L16.9 196.8 14.1 198.2 10.55 198.35 8.65 197.85 7.0 197.15 5.35 196.15 3.9 194.95 2.75 193.55 1.75 192.05 1.05 190.5 1.05 187.45 2.5 184.7 3.7 183.65 5.1 182.85 8.65 181.95 12.2 182.45 13.85 183.15 15.5 184.2 17.85 186.75 18.8 188.45 19.5 191.55 18.8 194.45" fill="#495170" fill-rule="evenodd" stroke="none"/>
    <path d="M17.85 193.55 L16.2 195.8 13.6 197.15 10.3 197.35 8.65 197.0 7.0 196.3 4.15 194.45 2.25 191.7 1.55 188.8 2.25 186.05 3.9 184.05 6.75 182.65 10.05 182.45 11.7 182.85 13.35 183.5 14.8 184.35 17.15 186.55 17.85 188.1 18.55 191.0 17.85 193.55" fill="#424c68" fill-rule="evenodd" stroke="none"/>
    <path d="M10.05 182.65 L11.45 183.0 12.9 183.65 15.5 185.4 16.45 186.55 17.15 187.95 17.6 190.65 17.15 193.05 15.5 194.95 13.1 196.15 10.05 196.3 8.4 195.95 7.0 195.3 4.4 193.55 3.45 192.4 2.75 191.2 2.0 188.45 2.75 186.05 4.4 184.05 7.0 182.85 10.05 182.65" fill="#3a425e" fill-rule="evenodd" stroke="none"/>
    <path d="M9.8 183.0 L12.4 183.85 13.6 184.55 15.5 186.55 16.2 187.75 16.65 190.15 16.2 192.4 14.8 194.1 12.4 195.1 9.8 195.3 8.4 194.95 5.8 193.75 3.9 191.85 3.2 190.65 2.75 188.3 3.2 186.05 4.6 184.2 7.0 183.15 9.8 183.0" fill="#333d56" fill-rule="evenodd" stroke="none"/>
    <path d="M-0.6 -53.55 L-1.3 -53.2 -5.1 -52.7 -8.15 -52.7 -11.95 -53.2 -13.6 -53.75 -14.05 -54.05 -14.3 -54.4 -14.05 -54.75 -13.6 -55.1 -12.9 -55.45 -11.95 -55.6 -5.1 -56.1 -1.3 -55.6 -0.6 -55.45 0.1 -55.1 0.6 -54.75 0.85 -54.4 0.6 -54.05 0.1 -53.75 -0.6 -53.55" fill="#7577af" fill-rule="evenodd" stroke="none"/>
  </g>
  <defs>
    <linearGradient gradientTransform="matrix(0.0294, 0.0, 0.0, 0.0294, -5.45, 130.5)" gradientUnits="userSpaceOnUse" id="gradient0" spreadMethod="pad" x1="-819.2" x2="819.2">
      <stop offset="0.00392156862745098" stop-color="#3ace41"/>
      <stop offset="0.48627450980392156" stop-color="#19b220"/>
      <stop offset="1.0" stop-color="#037c09"/>
    </linearGradient>
  </defs>
</svg>
