<?xml version="1.0" encoding="UTF-8" standalone="no"?>
<svg xmlns:xlink="http://www.w3.org/1999/xlink" height="49.3px" width="86.45px" xmlns="http://www.w3.org/2000/svg">
  <g transform="matrix(1.0, 0.0, 0.0, 1.0, -194.25, -90.5)">
    <path d="M194.25 104.75 L280.35 104.75 276.5 133.1 257.6 138.8 232.15 139.8 210.25 137.85 197.1 132.25 194.25 104.75" fill="url(#gradient0)" fill-rule="evenodd" stroke="none"/>
    <path d="M280.7 102.8 Q280.2 108.1 268.15 111.55 255.95 115.0 237.65 115.15 219.35 115.0 207.15 111.55 195.1 108.1 194.6 102.8 195.1 97.55 207.15 94.1 219.35 90.6 237.65 90.5 255.95 90.6 268.15 94.1 280.2 97.55 280.7 102.8" fill="url(#gradient1)" fill-rule="evenodd" stroke="none"/>
    <path d="M275.55 102.85 Q275.2 106.9 264.45 109.55 253.8 112.15 237.65 112.3 221.5 112.15 210.85 109.55 200.1 106.9 199.75 102.85 200.1 98.8 210.85 96.15 221.5 93.5 237.65 93.4 253.8 93.5 264.45 96.15 275.2 98.9 275.55 102.85" fill="#9c3222" fill-rule="evenodd" stroke="none"/>
    <path d="M274.0 105.8 Q273.65 108.55 263.35 110.35 253.1 112.15 237.65 112.25 222.1 112.15 211.85 110.35 201.55 108.55 201.2 105.8 201.55 103.05 211.85 101.25 222.1 99.45 237.65 99.35 253.1 99.45 263.35 101.25 273.65 103.05 274.0 105.8" fill="#dfab57" fill-rule="evenodd" stroke="none"/>
  </g>
  <defs>
    <linearGradient gradientTransform="matrix(0.0525, 0.0, 0.0, 0.0525, 237.3, 122.2)" gradientUnits="userSpaceOnUse" id="gradient0" spreadMethod="pad" x1="-819.2" x2="819.2">
      <stop offset="0.0" stop-color="#dc5f33"/>
      <stop offset="0.1568627450980392" stop-color="#d26c33"/>
      <stop offset="0.41568627450980394" stop-color="#e36d33"/>
      <stop offset="0.6823529411764706" stop-color="#c5552f"/>
      <stop offset="1.0" stop-color="#a33e2a"/>
    </linearGradient>
    <linearGradient gradientTransform="matrix(0.0525, 0.0, 0.0, 0.0525, 237.65, 102.8)" gradientUnits="userSpaceOnUse" id="gradient1" spreadMethod="pad" x1="-819.2" x2="819.2">
      <stop offset="0.0" stop-color="#fa7f41"/>
      <stop offset="0.4823529411764706" stop-color="#da7037"/>
      <stop offset="0.8235294117647058" stop-color="#d66e39"/>
      <stop offset="1.0" stop-color="#cc6c39"/>
    </linearGradient>
  </defs>
</svg>
