<?xml version="1.0" encoding="utf-8"?>
<!-- Generator: Adobe Illustrator 16.0.4, SVG Export Plug-In . SVG Version: 6.00 Build 0)  -->
<!DOCTYPE svg PUBLIC "-//W3C//DTD SVG 1.1//EN" "http://www.w3.org/Graphics/SVG/1.1/DTD/svg11.dtd">
<svg version="1.1" id="Layer_1" xmlns="http://www.w3.org/2000/svg" xmlns:xlink="http://www.w3.org/1999/xlink" x="0px" y="0px"
	 width="72px" height="110px" viewBox="0 0 72 110" enable-background="new 0 0 72 110" xml:space="preserve">
<path fill="#FFAEAE" d="M67.75,100.25c0,0-7.75-43-11.25-64.5S44.753,4.169,36,5C27.493,5.807,11.25,5,3.75,50.25
	c0,0-2.5,28.75,7.75,39.5L8,101.5l26.333,8.5h13.333L67.75,100.25"/>
<path fill="none" stroke="#000000" stroke-width="3" stroke-miterlimit="10" d="M67.75,100.25c0,0-7.75-43-11.25-64.5
	S44.787,5.277,36,5C27.167,4.722,10.333,4.953,3.75,50.25c0,0-2.5,28.75,7.75,39.5L8,101.5"/>
<path fill="#FFECEC" stroke="#000000" stroke-width="3" stroke-miterlimit="10" d="M45.621,9.377c0,0-15.787,29.789-2.787,40.623
	c8.166,1.334,16.157,0.582,16.157,0.582S55.242,17.588,45.621,9.377z"/>
<line fill="none" stroke="#000000" stroke-width="3" stroke-miterlimit="10" x1="11.5" y1="89.75" x2="23" y2="88.834"/>
</svg>
