<?xml version="1.0" encoding="utf-8"?>
<!-- Generator: Adobe Illustrator 16.0.4, SVG Export Plug-In . SVG Version: 6.00 Build 0)  -->
<!DOCTYPE svg PUBLIC "-//W3C//DTD SVG 1.1//EN" "http://www.w3.org/Graphics/SVG/1.1/DTD/svg11.dtd">
<svg version="1.1" id="Layer_1" xmlns="http://www.w3.org/2000/svg" xmlns:xlink="http://www.w3.org/1999/xlink" x="0px" y="0px"
	 width="515px" height="290px" viewBox="0 0 515 290" enable-background="new 0 0 515 290" xml:space="preserve">
<g id="Layer_1_1_" display="none">
	
		<image display="inline" overflow="visible" enable-background="new    " width="124" height="70" xlink:href="B838619870F966.png"  transform="matrix(4.1532 0 0 4.1429 0 0)">
	</image>
	
		<image display="inline" overflow="visible" enable-background="new    " width="515" height="290" xlink:href="B838619870F96A.png" >
	</image>
</g>
<g id="Layer_2">
	<rect x="28" y="45" fill="#FF0000" width="18" height="176"/>
	<path fill="#FF0000" stroke="#000000" stroke-width="3" stroke-miterlimit="10" d="M102,87.5h409c0,0,7.162,135-138.245,182H240
		C240,269.5,115.429,242.98,102,87.5z"/>
	
		<radialGradient id="SVGID_1_" cx="599.3682" cy="752.2451" r="32.1436" gradientTransform="matrix(1 0 0 1 -562 -501)" gradientUnits="userSpaceOnUse">
		<stop  offset="0" style="stop-color:#FFFFFF"/>
		<stop  offset="1" style="stop-color:#FF0000"/>
	</radialGradient>
	<circle fill="url(#SVGID_1_)" stroke="#000000" stroke-width="3" stroke-miterlimit="10" cx="37.368" cy="251.245" r="32.144"/>
	<rect x="244.5" y="270.5" fill="#FF0000" stroke="#000000" stroke-width="3" stroke-miterlimit="10" width="125" height="15"/>
	<polyline fill="none" stroke="#000000" stroke-width="3" stroke-miterlimit="10" points="28.5,221 28.5,5.5 46.5,5.5 46.5,220 	"/>
	<path fill="none" stroke="#000000" stroke-width="3" stroke-miterlimit="10" d="M151.5,145c0,0,72.5-15.5,135-3.5
		s153,14.889,152.5-4.556"/>
	<path fill="none" stroke="#000000" stroke-width="3" stroke-miterlimit="10" d="M350.5,105.5c0,0,83.5,9.5,106.5,0"/>
	<path fill="none" stroke="#000000" stroke-width="3" stroke-miterlimit="10" d="M193.5,195c0,0,17.5-14.5,48.5-14s63.5,28,87,29
		s70.5-17.5,70.5-17.5"/>
	<path fill="none" stroke="#000000" stroke-width="3" stroke-miterlimit="10" d="M229.5,234c0,0,52.5-6,62.5,10.5"/>
	<path fill="none" stroke="#000000" stroke-width="3" stroke-miterlimit="10" d="M390.5,221c0,0,23.5,4,26.5-22"/>
</g>
</svg>
