<svg id="Layer_1" data-name="Layer 1" xmlns="http://www.w3.org/2000/svg" viewBox="0 0 96 96"><defs><style>.cls-1{fill:#fff;}.cls-2{fill:none;stroke:#000;stroke-linecap:round;stroke-linejoin:round;}.cls-3{fill:#0c0;}.cls-4{fill:lime;}</style></defs><title>chemicalenergy</title><path class="cls-1" d="M95.5,95.5H.5V.5h95v95"/><path class="cls-2" d="M95.5,95.5H.5V.5h95Z"/><path class="cls-3" d="M67.57,20.35,61.44,37.5,79.67,37l-15,10.27,15,10.31-18.23-.52,6.12,17.19L53.14,63.13,48,80.63l-5.15-17.5L28.42,74.27l6.12-17.19-18.23.52,15-10.31L16.31,37l18.23.48L28.42,20.35l14.42,11.1L48,14l5.15,17.46,14.42-11.1"/><path class="cls-4" d="M67.57,20.35,53.14,31.45,48,14,42.84,31.45,28.42,20.35,34.54,37.5,16.31,37l15,10.27-15,10.31,18.23-.52L28.42,74.27,42.84,63.13,48,80.63l5.15-17.5L67.57,74.27,61.44,57.08l18.23.52-15-10.31L79.67,37l-18.23.48,6.12-17.15M75.9,9.56,67.18,34l26-.69L71.75,48l21.41,14.7-26-.76L75.9,86.44,55.32,70.57,48,95.5,40.66,70.57,20.08,86.44,28.8,61.92l-26,.76L24.23,48,2.83,33.32l26,.69L20.08,9.56,40.66,25.4,48,.5l7.33,24.9L75.9,9.56"/></svg>